<?xml version="1.0" encoding="utf-8"?>
<!-- Generator: Adobe Illustrator 21.1.0, SVG Export Plug-In . SVG Version: 6.00 Build 0)  -->
<svg version="1.1" id="Calque_1" xmlns="http://www.w3.org/2000/svg" xmlns:xlink="http://www.w3.org/1999/xlink" x="0px" y="0px"
	 viewBox="0 0 1280 1024" style="enable-background:new 0 0 1280 1024;" xml:space="preserve">
<style type="text/css">
	.st0{fill:none;stroke:#000000;stroke-miterlimit:10;}
</style>
<circle cx="262" cy="159" r="20"/>
<path d="M243,181h38c6.6,0,12,5.4,12,12v9c0,6.6-5.4,12-12,12h-38c-6.6,0-12-5.4-12-12v-9C231,186.4,236.4,181,243,181z"/>
<path class="st0" d="M226,121h72c6.6,0,12,5.4,12,12v72c0,6.6-5.4,12-12,12h-72c-6.6,0-12-5.4-12-12v-72
	C214,126.4,219.4,121,226,121z"/>
</svg>
